<?xml version="1.0" encoding="utf-8"?>
<!-- Generator: Adobe Illustrator 21.0.0, SVG Export Plug-In . SVG Version: 6.00 Build 0)  -->
<svg version="1.1" id="Layer_1" xmlns="http://www.w3.org/2000/svg" xmlns:xlink="http://www.w3.org/1999/xlink" x="0px" y="0px"
	 viewBox="0 0 470.4 230.7" style="enable-background:new 0 0 470.4 230.7;" xml:space="preserve">
<style type="text/css">
	.st0{opacity:0.86;}
	.st1{fill:none;stroke:#333A3B;stroke-width:2;stroke-miterlimit:10;}
	.st2{opacity:0.89;}
	.st3{opacity:0.64;fill:#F07258;}
	.st4{opacity:0.64;fill:#98B0E0;}
	.st5{opacity:0.64;fill:#F0C658;}
	.st6{opacity:0.64;fill:#F0A997;}
	.st7{opacity:0.64;fill:#DEB9C9;}
	.st8{opacity:0.64;fill:#F0BF7F;}
	.st9{opacity:0.64;fill:#AEDC5C;}
	.st10{opacity:0.64;fill:#A4A1C2;}
	.st11{opacity:0.26;}
	.st12{fill:none;stroke:#333A3B;stroke-miterlimit:10;}
</style>
<g class="st0">
	<polyline class="st1" points="227.7,108.5 227.7,175.2 212.3,175.2 212.3,113.5 	"/>
	<polyline class="st1" points="241.2,108.5 241.2,175.2 256.6,175.2 256.6,112.6 	"/>
	<g>
		<rect x="184.4" y="88.7" class="st1" width="14.3" height="141"/>
		<rect x="181.6" y="83.1" class="st1" width="19.9" height="6.9"/>
		<line class="st1" x1="184.4" y1="204.2" x2="198.7" y2="204.2"/>
	</g>
	<g>
		<rect x="271.5" y="88.7" class="st1" width="14.3" height="141"/>
		<rect x="268.7" y="83.1" class="st1" width="19.9" height="6.9"/>
		<line class="st1" x1="271.5" y1="204.2" x2="285.8" y2="204.2"/>
	</g>
	<path class="st1" d="M198.7,91.3h72.9v33.4c0,0-10.7-16.7-36.4-16.7c-24.5,0-36.4,16.7-36.4,16.7V91.3z"/>
	<rect x="198.7" y="175.2" class="st1" width="72.9" height="15.1"/>
	<line class="st1" x1="198.7" y1="229.7" x2="271.5" y2="229.7"/>
	<line class="st1" x1="223.5" y1="229.7" x2="223.5" y2="190.3"/>
	<line class="st1" x1="246.1" y1="229.7" x2="246.1" y2="190.3"/>
	<g>
		<rect x="285.8" y="115.9" class="st1" width="82.1" height="8.8"/>
		<rect x="285.8" y="124.7" class="st1" width="79.1" height="22"/>
		<rect x="285.8" y="146.6" class="st1" width="134.3" height="8.8"/>
		<rect x="285.8" y="155.4" class="st1" width="132" height="74.3"/>
		<rect x="285.8" y="204.2" class="st1" width="134.3" height="25.5"/>
		<g>
			<rect x="302.6" y="170.6" class="st1" width="17.7" height="51.9"/>
			<line class="st1" x1="302.6" y1="177.6" x2="320.4" y2="177.6"/>
			<rect x="305" y="180.8" class="st1" width="12.8" height="38.9"/>
			<line class="st1" x1="311.4" y1="180.8" x2="311.4" y2="219.7"/>
			<line class="st1" x1="317.8" y1="194.6" x2="305" y2="194.6"/>
			<line class="st1" x1="317.8" y1="208.7" x2="305" y2="208.7"/>
			<rect x="310.1" y="160.2" class="st1" width="2.6" height="7.6"/>
		</g>
		<g>
			<rect x="343.2" y="170.6" class="st1" width="17.7" height="51.9"/>
			<line class="st1" x1="343.2" y1="177.6" x2="361" y2="177.6"/>
			<rect x="345.6" y="180.8" class="st1" width="12.8" height="38.9"/>
			<line class="st1" x1="352" y1="180.8" x2="352" y2="219.7"/>
			<line class="st1" x1="358.4" y1="194.6" x2="345.6" y2="194.6"/>
			<line class="st1" x1="358.4" y1="208.7" x2="345.6" y2="208.7"/>
			<rect x="350.7" y="160.2" class="st1" width="2.6" height="7.6"/>
		</g>
		<g>
			<rect x="383.8" y="170.6" class="st1" width="17.7" height="51.9"/>
			<line class="st1" x1="383.8" y1="177.6" x2="401.6" y2="177.6"/>
			<rect x="386.2" y="180.8" class="st1" width="12.8" height="38.9"/>
			<line class="st1" x1="392.6" y1="180.8" x2="392.6" y2="219.7"/>
			<line class="st1" x1="399" y1="194.6" x2="386.2" y2="194.6"/>
			<line class="st1" x1="399" y1="208.7" x2="386.2" y2="208.7"/>
			<rect x="391.3" y="160.2" class="st1" width="2.6" height="7.6"/>
		</g>
	</g>
	<g>
		
			<rect x="102.3" y="115.9" transform="matrix(-1 -4.487711e-11 4.487711e-11 -1 286.6823 240.6141)" class="st1" width="82.1" height="8.8"/>
		
			<rect x="105.3" y="124.7" transform="matrix(-1 -4.487001e-11 4.487001e-11 -1 289.7102 271.3262)" class="st1" width="79.1" height="22"/>
		
			<rect x="50.1" y="146.6" transform="matrix(-1 -4.486823e-11 4.486823e-11 -1 234.4501 302.0383)" class="st1" width="134.3" height="8.8"/>
		
			<rect x="52.3" y="155.4" transform="matrix(-1 -4.490998e-11 4.490998e-11 -1 236.721 385.0908)" class="st1" width="132" height="74.3"/>
		<rect x="50.1" y="204.2" class="st1" width="134.3" height="25.5"/>
		<g>
			
				<rect x="149.8" y="170.6" transform="matrix(-1 -4.492330e-11 4.492330e-11 -1 317.3944 393.2013)" class="st1" width="17.7" height="51.9"/>
			<line class="st1" x1="167.6" y1="177.6" x2="149.8" y2="177.6"/>
			
				<rect x="152.4" y="180.8" transform="matrix(-1 -4.485491e-11 4.485491e-11 -1 317.6647 400.5549)" class="st1" width="12.8" height="38.9"/>
			<line class="st1" x1="158.8" y1="180.8" x2="158.8" y2="219.7"/>
			<line class="st1" x1="152.4" y1="194.6" x2="165.2" y2="194.6"/>
			<line class="st1" x1="152.4" y1="208.7" x2="165.2" y2="208.7"/>
			
				<rect x="157.5" y="160.2" transform="matrix(-1 -4.345292e-11 4.345292e-11 -1 317.6646 328.0463)" class="st1" width="2.6" height="7.6"/>
		</g>
		<g>
			
				<rect x="109.2" y="170.6" transform="matrix(-1 -4.492330e-11 4.492330e-11 -1 236.1803 393.2013)" class="st1" width="17.7" height="51.9"/>
			<line class="st1" x1="127" y1="177.6" x2="109.2" y2="177.6"/>
			
				<rect x="111.8" y="180.8" transform="matrix(-1 -4.485491e-11 4.485491e-11 -1 236.4507 400.5549)" class="st1" width="12.8" height="38.9"/>
			<line class="st1" x1="118.2" y1="180.8" x2="118.2" y2="219.7"/>
			<line class="st1" x1="111.8" y1="194.6" x2="124.6" y2="194.6"/>
			<line class="st1" x1="111.8" y1="208.7" x2="124.6" y2="208.7"/>
			
				<rect x="116.9" y="160.2" transform="matrix(-1 -4.485491e-11 4.485491e-11 -1 236.4505 328.0463)" class="st1" width="2.6" height="7.6"/>
		</g>
		<g>
			
				<rect x="68.6" y="170.6" transform="matrix(-1 -4.492330e-11 4.492330e-11 -1 154.9663 393.2013)" class="st1" width="17.7" height="51.9"/>
			<line class="st1" x1="86.4" y1="177.6" x2="68.6" y2="177.6"/>
			
				<rect x="71.2" y="180.8" transform="matrix(-1 -4.499657e-11 4.499657e-11 -1 155.2367 400.5549)" class="st1" width="12.8" height="38.9"/>
			<line class="st1" x1="77.6" y1="180.8" x2="77.6" y2="219.7"/>
			<line class="st1" x1="71.2" y1="194.6" x2="84" y2="194.6"/>
			<line class="st1" x1="71.2" y1="208.7" x2="84" y2="208.7"/>
			
				<rect x="76.3" y="160.2" transform="matrix(-1 -4.485491e-11 4.485491e-11 -1 155.2365 328.0463)" class="st1" width="2.6" height="7.6"/>
		</g>
	</g>
	<g>
		<line class="st1" x1="235.1" y1="91.3" x2="235.1" y2="0"/>
		<polyline class="st1" points="235.1,1.7 269.9,1.7 261.7,25.1 235.1,25.1 		"/>
		<polyline class="st1" points="255.9,25.1 254.1,30.1 285.8,30.1 285.8,5 268.8,5 		"/>
	</g>
	<line class="st1" x1="0" y1="229.7" x2="470.4" y2="229.7"/>
</g>
</svg>
