<?xml version="1.0" encoding="utf-8"?>
<!-- Generator: Adobe Illustrator 21.0.0, SVG Export Plug-In . SVG Version: 6.00 Build 0)  -->
<svg version="1.1" id="Layer_1" xmlns="http://www.w3.org/2000/svg" xmlns:xlink="http://www.w3.org/1999/xlink" x="0px" y="0px"
	 viewBox="0 0 335.3 138.9" style="enable-background:new 0 0 335.3 138.9;" xml:space="preserve">
<style type="text/css">
	.st0{opacity:0.86;}
	.st1{fill:none;stroke:#333A3B;stroke-width:2;stroke-miterlimit:10;}
	.st2{opacity:0.89;}
	.st3{opacity:0.64;fill:#F07258;}
	.st4{opacity:0.64;fill:#98B0E0;}
	.st5{opacity:0.64;fill:#F0C658;}
	.st6{opacity:0.64;fill:#F0A997;}
	.st7{opacity:0.64;fill:#DEB9C9;}
	.st8{opacity:0.64;fill:#F0BF7F;}
	.st9{opacity:0.64;fill:#AEDC5C;}
	.st10{opacity:0.64;fill:#A4A1C2;}
	.st11{opacity:0.26;}
	.st12{fill:none;stroke:#333A3B;stroke-miterlimit:10;}
</style>
<g class="st11">
	<g>
		<polyline class="st12" points="107.6,65.4 107.6,105.6 98.3,105.6 98.3,68.4 		"/>
		<polyline class="st12" points="115.7,65.4 115.7,105.6 125,105.6 125,67.9 		"/>
		<g>
			<rect x="81.4" y="53.4" class="st12" width="8.6" height="85"/>
			<rect x="79.7" y="50.1" class="st12" width="12" height="4.2"/>
			<line class="st12" x1="81.4" y1="123" x2="90" y2="123"/>
		</g>
		<g>
			<rect x="134" y="53.4" class="st12" width="8.6" height="85"/>
			<rect x="132.3" y="50.1" class="st12" width="12" height="4.2"/>
			<line class="st12" x1="134" y1="123" x2="142.6" y2="123"/>
		</g>
		<path class="st12" d="M90,55H134v20.1c0,0-6.5-10.1-22-10.1c-14.8,0-22,10.1-22,10.1V55z"/>
		<rect x="90" y="105.6" class="st12" width="43.9" height="9.1"/>
		<line class="st12" x1="105" y1="138.4" x2="105" y2="114.7"/>
		<line class="st12" x1="118.7" y1="138.4" x2="118.7" y2="114.7"/>
		<g>
			<rect x="142.6" y="69.9" class="st12" width="49.5" height="5.3"/>
			<rect x="142.6" y="75.1" class="st12" width="47.6" height="13.2"/>
			<rect x="142.6" y="88.4" class="st12" width="80.9" height="5.3"/>
			<rect x="142.6" y="93.6" class="st12" width="79.6" height="44.8"/>
			<rect x="142.6" y="123" class="st12" width="80.9" height="15.4"/>
			<g>
				<rect x="152.7" y="102.8" class="st12" width="10.7" height="31.3"/>
				<line class="st12" x1="152.7" y1="107" x2="163.4" y2="107"/>
				<rect x="154.1" y="109" class="st12" width="7.7" height="23.5"/>
				<line class="st12" x1="158" y1="109" x2="158" y2="132.4"/>
				<line class="st12" x1="161.8" y1="117.3" x2="154.1" y2="117.3"/>
				<line class="st12" x1="161.8" y1="125.8" x2="154.1" y2="125.8"/>
				<rect x="157.2" y="96.5" class="st12" width="1.6" height="4.6"/>
			</g>
			<g>
				<rect x="177.2" y="102.8" class="st12" width="10.7" height="31.3"/>
				<line class="st12" x1="177.2" y1="107" x2="187.9" y2="107"/>
				<rect x="178.6" y="109" class="st12" width="7.7" height="23.5"/>
				<line class="st12" x1="182.4" y1="109" x2="182.4" y2="132.4"/>
				<line class="st12" x1="186.3" y1="117.3" x2="178.6" y2="117.3"/>
				<line class="st12" x1="186.3" y1="125.8" x2="178.6" y2="125.8"/>
				<rect x="181.7" y="96.5" class="st12" width="1.6" height="4.6"/>
			</g>
			<g>
				<rect x="201.6" y="102.8" class="st12" width="10.7" height="31.3"/>
				<line class="st12" x1="201.6" y1="107" x2="212.3" y2="107"/>
				<rect x="203" y="109" class="st12" width="7.7" height="23.5"/>
				<line class="st12" x1="206.9" y1="109" x2="206.9" y2="132.4"/>
				<line class="st12" x1="210.8" y1="117.3" x2="203" y2="117.3"/>
				<line class="st12" x1="210.8" y1="125.8" x2="203" y2="125.8"/>
				<rect x="206.1" y="96.5" class="st12" width="1.6" height="4.6"/>
			</g>
		</g>
		<g>
			
				<rect x="32" y="69.9" transform="matrix(-1 -4.486468e-11 4.486468e-11 -1 113.418 145.0029)" class="st12" width="49.5" height="5.3"/>
			
				<rect x="33.8" y="75.1" transform="matrix(-1 -4.490287e-11 4.490287e-11 -1 115.2427 163.5111)" class="st12" width="47.6" height="13.2"/>
			
				<rect x="0.5" y="88.4" transform="matrix(-1 -4.483404e-11 4.483404e-11 -1 81.9409 182.0193)" class="st12" width="80.9" height="5.3"/>
			
				<rect x="1.9" y="93.6" transform="matrix(-1 -4.487356e-11 4.487356e-11 -1 83.3095 232.0697)" class="st12" width="79.6" height="44.8"/>
			<rect x="0.5" y="123" class="st12" width="80.9" height="15.4"/>
			<g>
				
					<rect x="60.6" y="102.8" transform="matrix(-1 -4.493085e-11 4.493085e-11 -1 131.9262 236.9575)" class="st12" width="10.7" height="31.3"/>
				<line class="st12" x1="71.3" y1="107" x2="60.6" y2="107"/>
				
					<rect x="62.2" y="109" transform="matrix(-1 -4.545931e-11 4.545931e-11 -1 132.0891 241.389)" class="st12" width="7.7" height="23.5"/>
				<line class="st12" x1="66" y1="109" x2="66" y2="132.4"/>
				<line class="st12" x1="62.2" y1="117.3" x2="69.9" y2="117.3"/>
				<line class="st12" x1="62.2" y1="125.8" x2="69.9" y2="125.8"/>
				
					<rect x="65.3" y="96.5" transform="matrix(-1 -3.721569e-11 3.721569e-11 -1 132.089 197.6927)" class="st12" width="1.6" height="4.6"/>
			</g>
			<g>
				
					<rect x="36.1" y="102.8" transform="matrix(-1 -4.493085e-11 4.493085e-11 -1 82.9836 236.9575)" class="st12" width="10.7" height="31.3"/>
				<line class="st12" x1="46.8" y1="107" x2="36.1" y2="107"/>
				
					<rect x="37.7" y="109" transform="matrix(-1 -4.522395e-11 4.522395e-11 -1 83.1466 241.389)" class="st12" width="7.7" height="23.5"/>
				<line class="st12" x1="41.6" y1="109" x2="41.6" y2="132.4"/>
				<line class="st12" x1="37.7" y1="117.3" x2="45.4" y2="117.3"/>
				<line class="st12" x1="37.7" y1="125.8" x2="45.4" y2="125.8"/>
				
					<rect x="40.8" y="96.5" transform="matrix(-1 -4.419322e-11 4.419322e-11 -1 83.1465 197.6927)" class="st12" width="1.6" height="4.6"/>
			</g>
			<g>
				
					<rect x="11.7" y="102.8" transform="matrix(-1 -4.493085e-11 4.493085e-11 -1 34.0411 236.9575)" class="st12" width="10.7" height="31.3"/>
				<line class="st12" x1="22.4" y1="107" x2="11.7" y2="107"/>
				
					<rect x="13.2" y="109" transform="matrix(-1 -4.522395e-11 4.522395e-11 -1 34.204 241.389)" class="st12" width="7.7" height="23.5"/>
				<line class="st12" x1="17.1" y1="109" x2="17.1" y2="132.4"/>
				<line class="st12" x1="13.2" y1="117.3" x2="21" y2="117.3"/>
				<line class="st12" x1="13.2" y1="125.8" x2="21" y2="125.8"/>
				
					<rect x="16.3" y="96.5" transform="matrix(-1 -4.419322e-11 4.419322e-11 -1 34.2039 197.6927)" class="st12" width="1.6" height="4.6"/>
			</g>
		</g>
		<g>
			<line class="st12" x1="112" y1="55" x2="112" y2="0"/>
			<polyline class="st12" points="112,1 133,1 128,15.1 112,15.1 			"/>
			<polyline class="st12" points="124.5,15.1 123.4,18.1 142.6,18.1 142.6,3 132.3,3 			"/>
		</g>
	</g>
	<g id="out_x5F_patient_x5F_line_17_">
		<g id="bandage_x5F_dude_x5F_1st_x5F_grp_15_">
			<circle class="st12" cx="330.1" cy="107.7" r="3.3"/>
			<polyline class="st12" points="327.9,112 330.1,114.5 330.9,119.6 331.9,124.5 327.6,124.5 327.6,114.3 			"/>
			<polyline class="st12" points="334.2,137.7 327.6,137.7 327.6,135.9 			"/>
			<polyline class="st12" points="328.7,115.6 326.8,120.9 331.9,127.8 			"/>
			<polyline class="st12" points="335.3,137.7 330.5,137.7 330.5,135.9 			"/>
			<polyline class="st12" points="327.6,124.5 326.8,135.9 329.3,135.6 330.9,124.6 			"/>
			<polygon class="st12" points="331.7,124.5 332.2,135.9 328.8,135.9 331.2,124.5 			"/>
			<polygon class="st12" points="331.1,104.5 326.8,108.2 327.4,109.6 332.4,105.3 			"/>
		</g>
		<g id="random_x5F_lady_x5F_2nd_x5F_grp_17_">
			<circle class="st12" cx="312.7" cy="107.7" r="3.3"/>
			<polyline class="st12" points="310.6,112 312.2,114.3 314.1,116.1 313.3,118 316.5,130.2 308.6,130.2 310.2,114.3 			"/>
			<polyline class="st12" points="312.4,130.2 312.4,131.1 310.2,137.7 316.9,137.7 			"/>
			<polyline class="st12" points="311.3,115.6 309.4,120.9 314.5,127.8 			"/>
			<polyline class="st12" points="313.2,130.2 313.6,131.1 312.4,137.7 318,137.7 			"/>
			<circle class="st12" cx="308.6" cy="104.3" r="2"/>
		</g>
		<g id="coughing_x5F_dude_x5F_3rd_x5F_grp_17_">
			
				<ellipse transform="matrix(8.942790e-02 -0.996 0.996 8.942790e-02 159.173 390.0573)" class="st12" cx="292.9" cy="108" rx="3.3" ry="3.3"/>
			<polyline class="st12" points="290.4,112 292.6,114.5 295.4,119.7 294.4,124.5 290.1,124.5 290.1,114.3 			"/>
			<polyline class="st12" points="296.8,137.7 290.1,137.7 290.1,135.9 			"/>
			<polyline class="st12" points="291.4,115.3 294.9,117.8 294.8,110.7 			"/>
			<polyline class="st12" points="297.8,137.7 293,137.7 293,135.9 			"/>
			<polyline class="st12" points="290.1,124.5 289.3,135.9 291.8,135.6 293.4,124.6 			"/>
			<polygon class="st12" points="294.3,124.5 294.7,135.9 291.4,135.9 293.8,124.5 			"/>
		</g>
		<g id="wheels_x5F_dude_x5F_5th_x5F_grp_17_">
			<polyline class="st12" points="263.6,116.4 266.7,116.4 269.1,122.6 			"/>
			<circle class="st12" cx="271.9" cy="130" r="7.6"/>
			<circle class="st12" cx="271.9" cy="130" r="2.4"/>
			<circle class="st12" cx="277.4" cy="111.6" r="3"/>
			<polyline class="st12" points="274.7,115.6 275.9,117.3 275.9,122.4 			"/>
			<polyline class="st12" points="273.2,115.6 271.4,118.8 270.7,121.6 			"/>
			<polyline class="st12" points="276.9,123.1 281.2,124.6 283.4,131.1 280.4,131.1 279.8,126.2 277.4,124.8 			"/>
			<polyline class="st12" points="281.7,131.1 282.2,134.4 281.7,137.7 286,137.7 			"/>
			<polyline class="st12" points="274,117.5 274,121.1 278.7,124.4 			"/>
			<line class="st12" x1="271.9" y1="127.7" x2="271.9" y2="122.4"/>
			<line class="st12" x1="270.7" y1="128" x2="268" y2="123.4"/>
			<line class="st12" x1="269.8" y1="128.9" x2="265.2" y2="126.2"/>
			<line class="st12" x1="269.5" y1="130" x2="264.2" y2="130"/>
			<line class="st12" x1="269.8" y1="131.2" x2="265.2" y2="133.9"/>
			<line class="st12" x1="270.7" y1="132.1" x2="268" y2="136.7"/>
			<line class="st12" x1="271.9" y1="132.4" x2="271.9" y2="137.7"/>
			<line class="st12" x1="273" y1="132.1" x2="275.7" y2="136.7"/>
			<line class="st12" x1="273.9" y1="131.2" x2="278.5" y2="133.9"/>
			<line class="st12" x1="274.2" y1="130" x2="279.5" y2="130"/>
			<line class="st12" x1="273.9" y1="128.9" x2="278.5" y2="126.2"/>
			<line class="st12" x1="273" y1="128" x2="275.7" y2="123.4"/>
		</g>
		<g id="pregy_x5F_lady_x5F_6th_x5F_grp_12_">
			<circle class="st12" cx="254.6" cy="107.7" r="3.3"/>
			<polyline class="st12" points="252.4,112 254,114.3 255.9,116.1 255.1,118 257,120.2 258.7,122.5 257.9,125.7 258.4,130.2 
				250.5,130.2 252.1,114.3 			"/>
			<polyline class="st12" points="254.2,130.2 254.2,131.1 252.1,137.7 258.7,137.7 			"/>
			<polyline class="st12" points="253.2,115.6 251.3,120.9 258.1,125 			"/>
			<polyline class="st12" points="255.1,130.2 255.4,131.1 254.2,137.7 259.8,137.7 			"/>
			<circle class="st12" cx="250.5" cy="104.3" r="2"/>
		</g>
		<g id="broken_x5F_dude_x5F_7th_x5F_grp_8_">
			<circle class="st12" cx="239.5" cy="108.9" r="3.3"/>
			<polyline class="st12" points="239.5,124.3 239.8,120.6 238.8,115.1 237.4,112.1 			"/>
			<polyline class="st12" points="241.9,138.1 234.4,138.1 235.2,136.3 			"/>
			<polyline class="st12" points="236.2,114.8 233.4,117.7 235.3,125.3 			"/>
			<polyline class="st12" points="242.9,138.1 238.1,138.1 238.1,136.3 			"/>
			<polyline class="st12" points="234.4,136.3 236.9,136 238.8,131.2 238.5,125 			"/>
			<polygon class="st12" points="239.4,124.9 241.1,131.7 239.8,136.3 236.5,136.3 238.8,131.2 238.9,124.9 			"/>
			<g>
				<rect x="231.8" y="117.7" class="st12" width="7.2" height="2.2"/>
				<rect x="233" y="119.9" class="st12" width="4.7" height="6.1"/>
				<polygon class="st12" points="233,125.9 233,127.9 234.6,132.1 236,132.1 237.7,128.1 237.7,125.9 				"/>
				<line class="st12" x1="235.3" y1="132.1" x2="235.3" y2="138.7"/>
			</g>
		</g>
	</g>
</g>
</svg>
